<?xml version="1.0" standalone="no"?>
<!DOCTYPE svg PUBLIC "-//W3C//DTD SVG 20010904//EN"
 "http://www.w3.org/TR/2001/REC-SVG-20010904/DTD/svg10.dtd">
<svg version="1.0" xmlns="http://www.w3.org/2000/svg"
 width="500.000000pt" height="500.000000pt" viewBox="0 0 500.000000 500.000000"
 preserveAspectRatio="xMidYMid meet">

<g transform="translate(0.000000,500.000000) scale(0.100000,-0.100000)"
fill="#000000" stroke="none">
<path d="M3265 3406 c-117 -68 -987 -559 -1753 -988 -254 -143 -462 -263 -462
-267 0 -3 66 -5 147 -5 l148 1 294 162 c162 88 297 161 301 161 4 0 36 -63 71
-140 35 -76 65 -138 67 -136 3 3 -62 269 -73 298 -4 9 4 19 20 26 31 14 24 33
78 -192 l43 -179 332 2 c305 1 337 3 390 21 180 63 292 224 292 419 0 176
-105 330 -257 374 l-44 13 265 143 c165 89 270 140 278 135 7 -4 114 -73 238
-152 124 -80 250 -161 280 -180 49 -31 40 -19 -87 109 l-143 144 0 77 0 76
-42 37 -43 36 -5 -66 -5 -66 -100 101 c-55 55 -104 100 -110 100 -5 0 -59 -29
-120 -64z m-485 -648 c72 -38 107 -108 90 -183 -12 -52 -34 -81 -87 -112 -46
-27 -55 -28 -195 -31 l-148 -4 0 161 0 160 28 15 c19 11 60 15 147 16 106 0
126 -3 165 -22z"/>
<path d="M3260 2995 l0 -55 60 0 60 0 0 55 0 55 -60 0 -60 0 0 -55z"/>
<path d="M3400 2995 l0 -55 60 0 60 0 0 55 0 55 -60 0 -60 0 0 -55z"/>
<path d="M3267 2913 c-4 -3 -7 -28 -7 -55 l0 -48 60 0 60 0 0 55 0 55 -53 0
c-30 0 -57 -3 -60 -7z"/>
<path d="M3400 2865 l0 -55 61 0 60 0 -3 53 -3 52 -57 3 -58 3 0 -56z"/>
<path d="M1155 1745 l0 -135 50 0 c39 1 46 3 33 11 -12 7 -18 22 -18 48 0 38
1 39 43 45 51 8 73 23 87 60 13 35 -4 75 -40 93 -14 7 -54 13 -90 13 l-65 0 0
-135z m129 103 c34 -48 4 -135 -42 -126 -14 3 -18 17 -20 76 -3 71 -2 72 22
72 14 0 31 -9 40 -22z"/>
<path d="M1388 1869 c16 -18 17 -230 0 -247 -9 -9 -2 -12 33 -12 l44 0 -3 65
c-5 86 14 86 52 0 26 -61 30 -65 61 -65 l33 0 -35 65 -35 66 26 24 c31 29 33
65 5 91 -17 15 -40 20 -108 22 -70 3 -84 1 -73 -9z m130 -11 c7 -7 12 -28 12
-48 0 -42 -14 -60 -47 -60 -21 0 -23 4 -23 60 0 56 2 60 23 60 13 0 28 -5 35
-12z"/>
<path d="M1638 1873 c9 -3 12 -39 12 -128 0 -89 -3 -125 -12 -128 -7 -3 12 -6
42 -6 42 -1 51 2 42 11 -8 8 -12 50 -12 123 0 73 4 115 12 123 9 9 0 12 -42
11 -30 0 -49 -3 -42 -6z"/>
<path d="M1758 1871 c10 -6 12 -38 10 -134 -3 -119 -2 -127 16 -127 15 0 16 3
7 14 -8 9 -11 48 -9 112 l3 99 41 -110 c23 -60 47 -110 54 -110 7 0 29 46 49
102 20 56 40 105 44 109 4 4 7 -38 7 -92 0 -65 -4 -104 -12 -112 -9 -9 -2 -12
33 -12 l44 0 0 135 0 135 -36 0 c-34 0 -36 -2 -53 -56 -10 -31 -25 -74 -35
-97 l-18 -41 -26 69 c-14 39 -31 82 -36 98 -9 24 -16 27 -53 27 -27 0 -38 -3
-30 -9z"/>
<path d="M2088 1873 c17 -7 17 -234 0 -251 -9 -9 11 -12 90 -12 l102 0 -1 28
c0 27 -1 27 -11 5 -9 -19 -19 -23 -60 -23 l-48 0 0 125 0 125 43 0 c36 0 46
-4 55 -22 10 -23 11 -23 11 5 l1 27 -97 -1 c-54 0 -92 -3 -85 -6z"/>
<path d="M2390 1848 l1 -33 20 28 c13 16 30 27 45 27 l24 0 0 -120 c0 -103 -2
-120 -17 -129 -14 -8 -2 -10 47 -10 49 0 61 2 48 10 -16 9 -18 26 -18 129 l0
120 30 0 c17 0 30 -4 30 -8 0 -5 7 -17 15 -28 14 -18 14 -17 15 14 l0 32 -120
0 -120 0 0 -32z"/>
<path d="M2658 1868 c17 -17 17 -229 0 -246 -9 -9 11 -12 90 -12 l102 0 -1 28
c0 27 -1 27 -11 5 -9 -19 -19 -23 -60 -23 l-48 0 0 125 0 125 43 0 c36 0 46
-4 55 -22 10 -23 11 -23 11 5 l1 27 -97 0 c-75 0 -94 -3 -85 -12z"/>
<path d="M2897 1848 c10 -18 36 -79 57 -135 21 -57 44 -103 50 -103 6 0 29 51
51 113 l40 112 3 -99 c2 -64 -1 -103 -9 -112 -10 -12 -3 -14 42 -13 30 0 48 3
42 6 -10 3 -13 39 -13 128 0 89 3 125 13 129 6 3 -8 4 -32 3 l-44 -2 -29 -80
c-15 -44 -31 -87 -34 -95 -4 -9 -21 24 -43 80 l-37 95 -38 3 -39 3 20 -33z"/>
<path d="M3208 1868 c17 -17 17 -244 0 -251 -7 -3 12 -5 42 -5 30 0 49 2 43 5
-8 3 -13 23 -13 48 0 43 0 43 42 50 97 17 123 124 37 154 -45 16 -167 15 -151
-1z m132 -17 c15 -30 12 -97 -6 -115 -8 -9 -24 -16 -35 -16 -17 0 -19 8 -19
75 0 73 1 75 25 75 14 0 29 -8 35 -19z"/>
<path d="M3438 1873 c9 -3 12 -39 12 -128 0 -89 -3 -125 -12 -128 -7 -3 33 -6
90 -6 l102 -1 0 38 0 37 -16 -32 c-15 -30 -21 -33 -60 -33 l-44 0 0 118 c0 78
4 122 12 130 9 9 0 12 -42 11 -30 0 -49 -3 -42 -6z"/>
<path d="M3658 1873 c9 -3 12 -39 12 -128 0 -89 -3 -125 -12 -128 -7 -3 33 -6
90 -6 l102 -1 -1 28 c0 27 -1 27 -11 5 -9 -19 -19 -23 -59 -23 l-48 0 0 125 0
125 45 0 c39 0 46 -3 56 -27 9 -23 12 -25 15 -10 10 42 -2 47 -104 46 -54 0
-92 -3 -85 -6z"/>
<path d="M2220 1764 c-11 -12 -10 -18 3 -32 16 -15 17 -14 17 16 0 36 -2 38
-20 16z"/>
<path d="M2787 1762 c-15 -16 -15 -19 3 -30 18 -11 20 -9 20 18 0 35 -2 36
-23 12z"/>
<path d="M3790 1764 c-11 -12 -10 -18 3 -32 16 -15 17 -14 17 16 0 36 -2 38
-20 16z"/>
<path d="M2886 1625 c-4 -10 1 -15 14 -15 13 0 18 5 14 15 -4 8 -10 15 -14 15
-4 0 -10 -7 -14 -15z"/>
<path d="M2337 1523 c-4 -3 -7 -30 -7 -60 0 -39 4 -55 16 -60 8 -3 19 -2 24 3
13 14 16 57 5 61 -6 2 -11 -7 -10 -19 0 -43 -20 -33 -23 11 -3 46 12 78 24 48
3 -9 10 -17 15 -17 6 0 5 9 -1 20 -11 20 -31 26 -43 13z"/>
<path d="M2401 1463 c1 -47 3 -59 8 -38 7 36 25 36 29 0 7 -51 21 -23 19 38
-2 60 -3 62 -29 65 l-28 3 1 -68z m39 32 c0 -16 -6 -25 -15 -25 -15 0 -21 31
-8 43 13 14 23 6 23 -18z"/>
<path d="M2474 1517 c-3 -8 -4 -36 -2 -63 3 -45 5 -49 28 -49 24 0 25 3 25 60
0 55 -2 60 -23 63 -12 2 -24 -3 -28 -11z m41 -52 c0 -30 -5 -50 -12 -52 -10
-4 -13 11 -13 52 0 41 3 56 13 53 7 -3 12 -23 12 -53z"/>
<path d="M2540 1482 c0 -55 19 -88 44 -79 13 5 16 19 14 69 l-1 63 -6 -58 c-8
-73 -25 -74 -29 -2 -4 68 -22 73 -22 7z"/>
<path d="M2621 1463 c1 -38 4 -56 6 -40 2 15 11 27 18 27 8 0 19 9 25 20 14
26 -3 60 -30 60 -18 0 -20 -7 -19 -67z m34 29 c0 -31 -19 -28 -23 4 -3 18 0
25 10 22 7 -3 13 -14 13 -26z"/>
</g>
</svg>
